<svg xmlns="http://www.w3.org/2000/svg" width="13" height="24" fill="none" overflow="visible"><path d="M 2.447 16.033 C 0.84 19.64 -1.092 23.992 0.751 23.994 L 12.284 24 C 14.274 24.001 11.595 18.537 10.552 16.01 C 9.748 14.061 8.48 11.927 8.155 11.329 C 8.013 11.066 8.585 10.888 9.313 10.685 C 12.182 9.884 13.555 6.313 11.581 2.684 C 9.606 -0.944 3.306 -0.948 1.569 3.002 C -0.316 7.287 1.65 9.836 3.81 10.669 C 4.728 11.023 5.069 11.04 4.942 11.283 C 4.116 12.866 3.061 14.652 2.447 16.032 Z" fill="rgb(0, 66, 219)"></path></svg>